<?xml version="1.0" standalone="no"?>
<!DOCTYPE svg PUBLIC "-//W3C//DTD SVG 20010904//EN"
 "http://www.w3.org/TR/2001/REC-SVG-20010904/DTD/svg10.dtd">
<svg version="1.0" xmlns="http://www.w3.org/2000/svg"
 width="512.000000pt" height="512.000000pt" viewBox="0 0 512.000000 512.000000"
 preserveAspectRatio="xMidYMid meet">

<g transform="translate(0.000000,512.000000) scale(0.100000,-0.100000)"
fill="#000000" stroke="none">
<path d="M3695 3870 l-490 -178 -3 -181 c-1 -100 -1 -181 2 -181 2 0 142 47
311 105 169 58 312 105 316 105 5 0 9 -495 9 -1130 l0 -1130 215 0 215 0 0
1385 0 1385 -42 -1 c-29 0 -201 -58 -533 -179z"/>
<path d="M1858 3616 c-57 -21 -85 -42 -116 -88 l-27 -41 -5 -356 -5 -356 -357
-5 -356 -5 -44 -30 c-124 -88 -124 -262 0 -350 l44 -30 356 -5 357 -5 5 -357
5 -356 30 -44 c87 -123 263 -123 350 0 l30 44 5 356 5 357 357 5 356 5 44 30
c124 88 124 262 0 350 l-44 30 -356 5 -357 5 -5 357 -5 356 -30 44 c-55 77
-158 114 -237 84z"/>
</g>
</svg>
