<?xml version="1.0" standalone="no"?>
<!DOCTYPE svg PUBLIC "-//W3C//DTD SVG 20010904//EN"
 "http://www.w3.org/TR/2001/REC-SVG-20010904/DTD/svg10.dtd">
<svg version="1.0" xmlns="http://www.w3.org/2000/svg"
 width="512.000000pt" height="512.000000pt" viewBox="0 0 512.000000 512.000000"
 preserveAspectRatio="xMidYMid meet">

<g transform="translate(0.000000,512.000000) scale(0.100000,-0.100000)"
fill="#000000" stroke="none">
<path d="M2494 4461 c-23 -10 -52 -34 -65 -52 -23 -33 -24 -41 -27 -234 -3
-192 -2 -202 20 -245 25 -48 89 -90 138 -90 49 0 113 42 138 90 20 41 22 57
22 230 0 173 -2 189 -22 230 -17 33 -35 51 -68 68 -54 27 -82 27 -136 3z"/>
<path d="M1240 3942 c-71 -35 -103 -138 -66 -210 8 -15 77 -88 153 -164 148
-146 169 -158 250 -143 49 9 109 69 118 118 15 80 3 101 -143 250 -75 76 -149
145 -164 153 -37 19 -106 18 -148 -4z"/>
<path d="M3735 3946 c-16 -7 -92 -76 -167 -153 -146 -149 -158 -170 -143 -250
9 -49 69 -109 118 -118 81 -15 102 -3 250 143 76 76 145 149 153 164 22 42 18
119 -8 158 -43 63 -132 87 -203 56z"/>
<path d="M2409 3424 c-388 -70 -671 -371 -721 -767 -45 -359 155 -723 487
-883 312 -151 662 -113 934 102 232 184 364 507 322 794 -35 234 -148 436
-322 574 -202 160 -455 225 -700 180z"/>
<path d="M734 2701 c-119 -54 -121 -219 -4 -278 41 -21 57 -23 230 -23 173 0
189 2 230 23 48 24 90 88 90 137 0 49 -42 113 -90 138 -41 20 -57 22 -230 22
-159 0 -191 -3 -226 -19z"/>
<path d="M3934 2701 c-119 -54 -121 -219 -4 -278 41 -21 57 -23 230 -23 173 0
189 2 230 23 48 24 90 88 90 137 0 49 -42 113 -90 138 -41 20 -57 22 -230 22
-159 0 -191 -3 -226 -19z"/>
<path d="M1475 1684 c-37 -19 -281 -259 -301 -296 -8 -15 -14 -49 -14 -75 0
-90 63 -153 153 -153 26 0 60 6 75 14 15 8 89 77 164 153 146 149 158 170 144
248 -18 95 -136 153 -221 109z"/>
<path d="M3515 1686 c-42 -18 -83 -69 -91 -112 -13 -72 8 -109 149 -251 72
-73 145 -139 163 -148 73 -35 163 -9 204 57 24 39 27 117 6 156 -22 40 -277
289 -309 302 -38 14 -85 12 -122 -4z"/>
<path d="M2494 1261 c-23 -10 -52 -34 -65 -52 -23 -33 -24 -41 -27 -234 -3
-192 -2 -202 20 -245 25 -48 89 -90 138 -90 49 0 113 42 138 90 20 41 22 57
22 230 0 173 -2 189 -22 230 -17 33 -35 51 -68 68 -54 27 -82 27 -136 3z"/>
</g>
</svg>
