<?xml version="1.0" encoding="UTF-8" standalone="no"?>

<svg
   width="149.96823mm"
   height="37.737568mm"
   viewBox="0 0 149.96823 37.737568"
   version="1.1"
   id="svg1"
   xml:space="preserve"
   inkscape:version="1.4 (86a8ad7, 2024-10-11)"
   sodipodi:docname="counter-logo-1.svg"
   xmlns:inkscape="http://www.inkscape.org/namespaces/inkscape"
   xmlns:sodipodi="http://sodipodi.sourceforge.net/DTD/sodipodi-0.dtd"
   xmlns="http://www.w3.org/2000/svg"
   xmlns:svg="http://www.w3.org/2000/svg"><sodipodi:namedview
     id="namedview1"
     pagecolor="#ffffff"
     bordercolor="#000000"
     borderopacity="0.25"
     inkscape:showpageshadow="2"
     inkscape:pageopacity="0.0"
     inkscape:pagecheckerboard="0"
     inkscape:deskcolor="#d1d1d1"
     inkscape:document-units="mm"
     inkscape:zoom="1.0167041"
     inkscape:cx="214.41834"
     inkscape:cy="118.52023"
     inkscape:window-width="1920"
     inkscape:window-height="1009"
     inkscape:window-x="-8"
     inkscape:window-y="-8"
     inkscape:window-maximized="1"
     inkscape:current-layer="layer2" /><defs
     id="defs1" /><g
     inkscape:groupmode="layer"
     id="layer2"
     inkscape:label="Layer 2"
     transform="translate(-30.406573,-62.005946)">
     
     <path
       id="path1"
       style="opacity:0.98;fill:#000000;stroke:#ffffff;stroke-width:0.097;stroke-opacity:1"
       inkscape:label="path1"
       d="m 39.279297,62.078125 c -2.85223,0.046 -3.93367,0.293837 -6.171875,1.992187 -1.12123,0.850792 -2.368848,2.816853 -2.46875,3.738282 -0.0999,0.921429 -0.183594,24.796875 -0.183594,24.796875 0,0 0.0914,1.471689 0.689453,3.173828 0.598048,1.702136 3.174096,2.897804 3.910157,3.173828 0.736057,0.276021 1.333918,0.690325 3.496093,0.736328 2.162175,0.046 3.036988,-0.183864 4.371094,-0.919922 1.334109,-0.73606 2.852042,-1.564359 3.496094,-3.3125 0.644051,-1.748142 0.965715,-1.562522 1.011719,-4.966797 0.046,-3.404274 -0.04492,-6.671875 -0.04492,-6.671875 l -7.177735,0.04687 0.06445,7.328125 c 0,0 0.02871,0.346739 -0.105468,0.667969 -0.134598,0.322238 -0.239323,0.464985 -0.476563,0.673828 -0.218816,0.192624 -0.466513,0.218854 -0.771484,0.21875 -0.309313,-1.05e-4 -0.632024,-0.0021 -0.84375,-0.09766 -0.164679,-0.07929 -0.396485,-0.269531 -0.396485,-0.269531 0,0 -0.263305,-0.282972 -0.322265,-0.53711 -0.05896,-0.254137 -0.01172,-21.878906 -0.01172,-21.878906 0,0 0.199345,-0.544232 0.402344,-0.726562 0.308087,-0.276717 0.554304,-0.533133 1.066406,-0.50586 0.540565,0.0029 0.976154,0.308083 1.189453,0.558594 0.151111,0.177474 0.225707,0.422525 0.228516,0.634766 0.0045,0.336968 0.02509,0.274572 0.03516,0.691406 l 0.08008,7.169922 6.853516,0.04492 0.03516,-9.587891 c 0.01031,-2.79836 -1.782187,-3.599599 -2.269531,-4.234375 -0.605369,-0.788503 -2.833317,-1.983501 -5.685547,-1.9375 z"
       sodipodi:nodetypes="ssscsssssscccsssccscscscccccsss" /> 
       
    <path
       id="path2"
       style="display:inline;opacity:0.98;fill:#000000;stroke:#ffffff;stroke-width:0.097;stroke-opacity:0.989637"
       d="m 61.496094,62.054688 c -1.594675,0.0065 -2.668034,0.135776 -3.59961,0.601562 -1.2421,0.621049 -2.990263,1.980092 -3.404296,2.785156 -0.414035,0.805066 -0.598767,0.688924 -0.966797,2.414063 -0.36803,1.725139 -0.306641,1.822265 -0.306641,1.822265 l 0.144531,23.087891 c 0,0 0.185155,1.702537 0.783203,2.599609 0.598049,0.897073 1.057569,1.794095 1.931641,2.369141 0.87407,0.575045 1.404356,1.359402 2.060547,1.578125 0.658723,0.219567 -0.113647,0.178728 2.179687,0.203125 2.293332,0.02439 3.358857,0.24385 4.960938,-0.642578 1.602079,-0.886431 2.716274,-1.447119 3.375,-2.642578 0.658722,-1.195462 1.292327,-1.585991 1.308594,-3.074219 0.01627,-1.488226 0.08984,-23.4375 0.08984,-23.4375 0,0 0.07917,-1.955378 -0.58789,-3.105469 -0.667054,-1.150093 -1.614971,-2.553041 -2.31836,-3.037109 -0.450032,-0.309709 -1.223926,-1.425135 -3.86914,-1.494141 -0.661303,-0.01725 -1.249692,-0.02949 -1.78125,-0.02734 z m 0.384765,6.761718 c 0.281774,0 0.470615,0.09105 0.775391,0.257813 0.304774,0.166762 0.345162,0.363396 0.419922,0.472656 0.07475,0.109257 0.0957,0.488281 0.0957,0.488281 0,0 0.06124,21.155778 0.04687,21.388672 -0.01438,0.232895 -0.08079,0.226963 -0.169922,0.50586 -0.08913,0.278897 -0.137923,0.296671 -0.304687,0.492187 -0.166764,0.195517 -0.377128,0.282073 -0.541016,0.376953 -0.163888,0.09487 -0.503863,0.0588 -0.65625,0.07031 -0.152386,0.0115 -0.358905,-0.06126 -0.619141,-0.142579 -0.260237,-0.08132 -0.357557,-0.261248 -0.552734,-0.521484 -0.195176,-0.260237 -0.228516,-0.601562 -0.228516,-0.601562 l 0.0332,-21.501954 c 0,0 -0.002,-0.19826 0.101562,-0.457031 0.103508,-0.258773 0.172653,-0.212686 0.419922,-0.408203 0.247272,-0.195512 0.269979,-0.150725 0.5,-0.271484 0.230018,-0.120763 0.397914,-0.148438 0.679687,-0.148438 z"
       sodipodi:nodetypes="ssssccssssssscsssssssscssssssscccssss" />
       
    
    <path
       style="opacity:0.98;fill:#000000;stroke:#ffffff;stroke-width:0.097;stroke-opacity:0.989637"
       d="m 76.672127,62.586835 -0.07319,30.439518 c 0,0 0.154514,0.829504 0.26837,1.179195 0.105894,0.325239 0.276502,0.862033 0.398486,1.146667 0.185746,0.433413 0.675482,0.952669 0.894561,1.211726 0.19373,0.229082 1.377893,1.726581 2.590165,2.277068 0.140952,0.064 0.573245,0.300766 0.689799,0.35625 0.289615,0.137867 0.696486,0.432497 2.030484,0.42446 1.349979,-0.0081 1.602081,0.05693 2.724351,-0.227703 1.122268,-0.284633 1.764726,-0.325297 2.93579,-1.057211 1.171065,-0.731914 2.138818,-1.057209 2.797541,-2.277068 0.658722,-1.219859 0.967753,-1.406903 1.097872,-2.423451 0.130117,-1.016547 0.300898,-1.585814 0.26837,-2.610495 -0.03253,-1.024681 0.02439,-28.365759 0.02439,-28.365759 l -6.790541,-0.03253 0.05692,28.796773 c 0,0 -0.03253,0.553003 -0.414751,0.894564 -0.382222,0.341559 -0.44728,0.496075 -0.943358,0.528603 -0.496075,0.03253 -0.886428,0.16265 -1.219856,-0.252103 -0.333428,-0.414753 -0.520473,-0.618061 -0.528606,-1.227989 -0.0081,-0.609931 -0.02439,-28.788643 -0.02439,-28.788643 z"
       id="path3"
       sodipodi:nodetypes="ccssssscssssscccsssccc" />
       
    <path
       style="opacity:0.98;fill:#000000;stroke:#ffffff;stroke-width:0.097;stroke-opacity:0.989637"
       d="m 100.03508,99.011501 6.72805,-0.02299 -0.87407,-19.137545 4.05982,19.17205 6.77405,0.02299 0.0115,-36.480948 h -6.83155 l 0.98908,18.896028 -4.01383,-18.884527 -6.85455,0.02299 z"
       id="path4" />
       
    <path
       style="opacity:0.98;fill:#000000;stroke:#ffffff;stroke-width:0.097;stroke-opacity:0.989637"
       d="m 121.90985,62.381039 16.83736,0.02299 -0.006,6.245005 -5.04316,0.02875 0.12076,30.299197 -7.00407,0.01151 -0.0805,-30.184187 -4.8764,-0.02299 z"
       id="path5" />
       
    <path
       style="opacity:0.98;fill:#000000;stroke:#ffffff;stroke-width:0.097;stroke-opacity:0.989637"
       d="m 143.74804,62.359129 h 13.56482 l 0.0325,6.408319 -6.37579,0.130117 -0.0325,8.555271 6.21314,-0.03253 0.0976,6.603497 -6.31073,0.03253 v 8.587798 l 6.31073,-0.03253 0.0651,6.505909 -13.59735,0.162647 z"
       id="path6" />
    
    <path
       id="path7"
       style="display:inline;opacity:0.98;fill:#000000;stroke:#ffffff;stroke-width:0.097;stroke-opacity:0.989637"
       d="M 163.20089,62.293872 V 99.15002 l 7.25382,-0.03256 -0.13022,-11.905733 0.84594,-0.03256 1.95182,12.003401 7.18922,0.03256 -3.61114,-13.434839 c 0,0 1.67549,-1.178892 2.02519,-1.837614 0.34969,-0.658725 0.99208,-1.537332 1.17099,-2.431893 0.17891,-0.894562 0.26858,-2.464032 0.26045,-2.903182 -0.008,-0.439147 0.0243,-9.002551 0.0243,-9.002551 0,0 -0.0736,-0.626392 -0.26872,-1.187525 -0.19517,-0.561137 -0.76112,-2.300125 -0.94003,-2.568494 -0.23003,-0.345031 -2.06935,-2.021182 -2.06935,-2.021182 0,0 -2.03402,-0.90573 -2.53823,-1.084641 -0.50421,-0.178912 -2.52701,-0.334822 -3.74687,-0.342956 -1.21986,-0.0081 -7.41716,-0.106384 -7.41716,-0.106384 z m 7.44761,7.050732 c 0.1833,3.5e-4 0.4363,0.0019 0.7152,0.0062 0.55779,0.0086 0.81913,0.157084 0.95446,0.232544 0.22252,0.124077 0.46519,0.389097 0.52349,0.460437 0.0463,0.05663 0.31056,0.41712 0.36496,0.617688 0,0 -0.002,7.51322 -0.008,7.725988 -0.006,0.212767 -0.0862,0.534715 -0.16381,0.816488 -0.0776,0.281774 -0.20716,0.299319 -0.32505,0.49196 -0.11788,0.19264 -0.52296,0.413928 -0.52296,0.413928 l -1.83451,0.02842 v -10.718726 -0.07441 c 0,0 0.11332,-8.67e-4 0.29662,-5.17e-4 z"
       sodipodi:nodetypes="scccccccssccsscsscssssccssccccscs" /></g></svg>
